# xmcd CD database file
#
# Track frame offsets:
#	150
#	24902
#	47711
#	82661
#	118961
#	134427
#	172553
#	195469
#	218269
#
# Disc length: 3328 seconds
#
# Revision: 0
# Processed by: cddbd v1.5.2PL0 Copyright (c) Steve Scherf et al.
# Submitted via: CDex 1.76
#
DISCID=630cfe09
DTITLE=Jan Bierther Trio und Gaeste - Jazz In Der Fabrik Vol 2
DYEAR=2016
DGENRE=Jazz
TTITLE0=Thomas Hufschmidt, You Don't Know What Love Is
TTITLE1=Sabine Kuehlich, Save Your Love For Me
TTITLE2=Gregor Hilden, Blue Clouds
TTITLE3=Krisse Classen Bierther, Dayflight
TTITLE4=Inez Timmer, Do You Know What It Means To Miss New Orleans
TTITLE5=Andreas Heuser JanBierther Quartett, Black Cat
TTITLE6=Matthias Bergmann, Celeste
TTITLE7=Ali Claudi, You Don't Know Me
TTITLE8=Joerg Kaufmann, Somewhere
EXTD=YEAR: 2016
EXTT0=
EXTT1=
EXTT2=
EXTT3=
EXTT4=
EXTT5=
EXTT6=
EXTT7=
EXTT8=
PLAYORDER=
